<?xml version="1.0" encoding="utf-8"?><svg viewBox="0 0 30 48" xmlns="http://www.w3.org/2000/svg" xmlns:xlink="http://www.w3.org/1999/xlink"><style>:root>svg{display:none}:root>svg:target{display:block}</style><svg viewBox="0 0 20 20" id="address" xmlns="http://www.w3.org/2000/svg"><path d="M7.988 17.958v2.03l-.49-.396a32.883 32.883 0 01-3.702-3.628C1.277 13.064 0 10.462 0 8.229v-.221C0 3.592 3.584 0 7.988 0c4.405 0 7.989 3.592 7.989 8.008v.221c0 .188-.01.378-.028.57l-1.563-1.428c-.32-3.256-3.067-5.809-6.398-5.809-3.545 0-6.43 2.892-6.43 6.446v.221c0 3.774 4.85 8.342 6.43 9.73zm4.793-1.122h2.338v-2.344h-2.338v2.344zM7.988 4.688a3.32 3.32 0 010 6.64 3.32 3.32 0 010-6.64zm0 1.562a1.758 1.758 0 000 3.516 1.758 1.758 0 000-3.516zm10.962 9.524l-.439-.4v2.508A2.118 2.118 0 0116.398 20h-4.935a2.118 2.118 0 01-2.113-2.118v-2.509l-.438.401-1.05-1.154 6.069-5.55L20 14.62l-1.05 1.154zm-1.997-1.826l-3.022-2.764-3.022 2.764v3.934c0 .306.248.555.554.555h4.935c.306 0 .555-.249.555-.555v-3.934z" fill="#004686"/></svg><svg fill="none" viewBox="0 0 12 8" id="arrow-down" xmlns="http://www.w3.org/2000/svg"><path d="M1 1l5 5 5-5"/></svg><svg fill="none" viewBox="0 0 15 11" id="arrow-right" xmlns="http://www.w3.org/2000/svg"><path d="M.5 5.667H14M9.333 1L14 5.667l-4.667 4.666" stroke="#fff" stroke-linecap="round"/></svg><svg fill="none" viewBox="0 0 30 30" id="close" xmlns="http://www.w3.org/2000/svg"><circle cx="15" cy="15" r="14.5" fill="#fff" stroke="#C4C4C4"/><path d="M21 10l-6 5.5 6 5.5M9 10l6 5.5L9 21" stroke="#C4C4C4" stroke-width="2" stroke-linecap="round"/></svg><svg viewBox="0 0 20 16" id="email" xmlns="http://www.w3.org/2000/svg"><path d="M19.219 9.387c.431 0 .781-.35.781-.782V3.488A3.129 3.129 0 0016.875.363H3.125A3.129 3.129 0 000 3.488v9.024a3.129 3.129 0 003.125 3.125h13.75A3.129 3.129 0 0020 12.512a.781.781 0 10-1.563 0c0 .861-.7 1.562-1.562 1.562H3.125c-.862 0-1.563-.7-1.563-1.562V3.654l6.788 4.22A3.12 3.12 0 0010 8.35a3.12 3.12 0 001.65-.475l6.787-4.22v4.951c0 .432.35.782.782.782zm-8.394-2.84a1.553 1.553 0 01-1.65 0L2.215 2.22c.256-.184.57-.293.91-.293h13.75c.34 0 .654.109.91.293l-6.96 4.328z"/></svg><svg fill="none" viewBox="0 0 8 9" id="marker" xmlns="http://www.w3.org/2000/svg"><circle cx="4" cy="4.112" r="4" fill="#004686"/><path d="M7.248 3.742s-.393-.964-2.54-1.684C2.776 1.41 1.666 1.87 1.666 1.87S2.937.216 5.084.936c2.147.72 2.097 2.732 2.164 2.806z" fill="#fff"/></svg><svg fill="none" viewBox="0 0 30 48" id="next" xmlns="http://www.w3.org/2000/svg"><path d="M4 4l20 20L4 44" stroke="#fff" stroke-width="8" stroke-linecap="round"/></svg><svg fill="none" viewBox="0 0 12 18" id="next-2" xmlns="http://www.w3.org/2000/svg"><path d="M2 2l7 7-7 7" stroke="#fff" stroke-width="4" stroke-linecap="round"/></svg><svg viewBox="0 0 30 30" id="ok" xmlns="http://www.w3.org/2000/svg"><path d="M15.014 12.432a2.568 2.568 0 002.568-2.591 2.573 2.573 0 00-2.581-2.58 2.577 2.577 0 00-2.588 2.61 2.574 2.574 0 002.601 2.56z"/><path d="M15 0C6.716 0 0 6.716 0 15c0 8.284 6.716 15 15 15 8.284 0 15-6.716 15-15 0-8.284-6.716-15-15-15zm.021 4.562c2.922.008 5.267 2.397 5.252 5.351-.014 2.886-2.398 5.225-5.315 5.215-2.887-.01-5.255-2.403-5.237-5.295a5.292 5.292 0 015.3-5.271zm5.918 12.642c-.646.663-1.424 1.143-2.287 1.478-.817.317-1.711.476-2.597.582.134.146.197.217.28.3 1.203 1.209 2.41 2.411 3.608 3.623.408.413.493.925.269 1.404-.246.525-.796.87-1.336.833-.342-.024-.608-.193-.845-.432-.907-.913-1.832-1.809-2.72-2.739-.26-.27-.383-.219-.612.016-.912.94-1.84 1.865-2.772 2.784-.42.413-.918.488-1.404.252-.516-.25-.845-.777-.82-1.308.018-.358.194-.632.44-.877 1.19-1.188 2.377-2.379 3.563-3.569.079-.079.152-.163.267-.285-1.619-.17-3.078-.568-4.328-1.545-.155-.121-.315-.238-.456-.375-.547-.525-.602-1.127-.17-1.746.37-.53.992-.672 1.638-.367.125.058.244.133.358.211 2.329 1.6 5.527 1.644 7.865.072.231-.177.479-.323.766-.396.557-.144 1.078.062 1.376.55.343.557.339 1.101-.083 1.534z"/></svg><svg viewBox="0 0 22 22" id="phone" xmlns="http://www.w3.org/2000/svg"><mask id="ja" maskUnits="userSpaceOnUse" x="0" y="1.313" width="22" height="20" fill="#000"><path fill="#fff" d="M0 1.313h22v20H0z"/><path d="M17.836 13.452c-.436-.422-.963-.649-1.52-.649-.554 0-1.085.222-1.54.645l-1.422 1.319c-.117-.059-.234-.113-.347-.168-.162-.075-.315-.146-.445-.222-1.332-.787-2.543-1.812-3.704-3.14-.562-.66-.94-1.217-1.215-1.782.369-.314.711-.64 1.044-.955.126-.117.252-.238.378-.356.945-.879.945-2.017 0-2.897L7.837 4.105c-.14-.13-.284-.264-.419-.398a20.6 20.6 0 00-.846-.779c-.437-.402-.959-.615-1.508-.615s-1.08.213-1.53.615l-.009.009-1.53 1.436c-.576.535-.904 1.188-.976 1.946-.108 1.223.279 2.361.576 3.106.729 1.83 1.818 3.525 3.442 5.342a21.03 21.03 0 007.052 5.136c1.035.457 2.417.997 3.96 1.089.095.004.194.008.284.008 1.04 0 1.913-.347 2.597-1.038.004-.009.013-.013.018-.021.234-.264.504-.502.787-.758.194-.171.392-.351.585-.54.446-.431.68-.933.68-1.448 0-.52-.238-1.018-.693-1.436l-2.47-2.307zm1.611 4.408c-.004 0-.004.005 0 0-.175.176-.355.335-.549.511-.292.26-.59.532-.868.837-.455.452-.99.666-1.692.666-.068 0-.14 0-.207-.004-1.337-.08-2.58-.565-3.51-.98a19.852 19.852 0 01-6.643-4.839c-1.535-1.72-2.56-3.311-3.24-5.02-.419-1.042-.572-1.854-.504-2.62.045-.49.247-.896.62-1.243L4.39 3.74c.22-.192.455-.297.684-.297.284 0 .513.16.657.293l.014.013c.274.238.535.485.81.75.14.133.283.267.427.405l1.23 1.143c.476.444.476.854 0 1.298-.131.121-.257.243-.388.36-.378.36-.738.695-1.13 1.021-.009.009-.018.013-.022.021-.387.36-.315.712-.234.95l.013.038c.32.72.77 1.398 1.454 2.206l.005.004c1.242 1.424 2.551 2.533 3.996 3.383.184.109.373.197.553.28.162.076.315.147.446.222.018.008.036.021.054.03.153.07.297.104.445.104a.99.99 0 00.684-.289l1.54-1.432c.153-.142.396-.313.68-.313.278 0 .508.163.647.305l.01.008 2.479 2.307c.463.427.463.867.004 1.31z"/></mask><path d="M17.836 13.452c-.436-.422-.963-.649-1.52-.649-.554 0-1.085.222-1.54.645l-1.422 1.319c-.117-.059-.234-.113-.347-.168-.162-.075-.315-.146-.445-.222-1.332-.787-2.543-1.812-3.704-3.14-.562-.66-.94-1.217-1.215-1.782.369-.314.711-.64 1.044-.955.126-.117.252-.238.378-.356.945-.879.945-2.017 0-2.897L7.837 4.105c-.14-.13-.284-.264-.419-.398a20.6 20.6 0 00-.846-.779c-.437-.402-.959-.615-1.508-.615s-1.08.213-1.53.615l-.009.009-1.53 1.436c-.576.535-.904 1.188-.976 1.946-.108 1.223.279 2.361.576 3.106.729 1.83 1.818 3.525 3.442 5.342a21.03 21.03 0 007.052 5.136c1.035.457 2.417.997 3.96 1.089.095.004.194.008.284.008 1.04 0 1.913-.347 2.597-1.038.004-.009.013-.013.018-.021.234-.264.504-.502.787-.758.194-.171.392-.351.585-.54.446-.431.68-.933.68-1.448 0-.52-.238-1.018-.693-1.436l-2.47-2.307zm1.611 4.408c-.004 0-.004.005 0 0-.175.176-.355.335-.549.511-.292.26-.59.532-.868.837-.455.452-.99.666-1.692.666-.068 0-.14 0-.207-.004-1.337-.08-2.58-.565-3.51-.98a19.852 19.852 0 01-6.643-4.839c-1.535-1.72-2.56-3.311-3.24-5.02-.419-1.042-.572-1.854-.504-2.62.045-.49.247-.896.62-1.243L4.39 3.74c.22-.192.455-.297.684-.297.284 0 .513.16.657.293l.014.013c.274.238.535.485.81.75.14.133.283.267.427.405l1.23 1.143c.476.444.476.854 0 1.298-.131.121-.257.243-.388.36-.378.36-.738.695-1.13 1.021-.009.009-.018.013-.022.021-.387.36-.315.712-.234.95l.013.038c.32.72.77 1.398 1.454 2.206l.005.004c1.242 1.424 2.551 2.533 3.996 3.383.184.109.373.197.553.28.162.076.315.147.446.222.018.008.036.021.054.03.153.07.297.104.445.104a.99.99 0 00.684-.289l1.54-1.432c.153-.142.396-.313.68-.313.278 0 .508.163.647.305l.01.008 2.479 2.307c.463.427.463.867.004 1.31z"/><path d="M17.836 13.452c-.436-.422-.963-.649-1.52-.649-.554 0-1.085.222-1.54.645l-1.422 1.319c-.117-.059-.234-.113-.347-.168-.162-.075-.315-.146-.445-.222-1.332-.787-2.543-1.812-3.704-3.14-.562-.66-.94-1.217-1.215-1.782.369-.314.711-.64 1.044-.955.126-.117.252-.238.378-.356.945-.879.945-2.017 0-2.897L7.837 4.105c-.14-.13-.284-.264-.419-.398a20.6 20.6 0 00-.846-.779c-.437-.402-.959-.615-1.508-.615s-1.08.213-1.53.615l-.009.009-1.53 1.436c-.576.535-.904 1.188-.976 1.946-.108 1.223.279 2.361.576 3.106.729 1.83 1.818 3.525 3.442 5.342a21.03 21.03 0 007.052 5.136c1.035.457 2.417.997 3.96 1.089.095.004.194.008.284.008 1.04 0 1.913-.347 2.597-1.038.004-.009.013-.013.018-.021.234-.264.504-.502.787-.758.194-.171.392-.351.585-.54.446-.431.68-.933.68-1.448 0-.52-.238-1.018-.693-1.436l-2.47-2.307zm1.611 4.408c-.004 0-.004.005 0 0-.175.176-.355.335-.549.511-.292.26-.59.532-.868.837-.455.452-.99.666-1.692.666-.068 0-.14 0-.207-.004-1.337-.08-2.58-.565-3.51-.98a19.852 19.852 0 01-6.643-4.839c-1.535-1.72-2.56-3.311-3.24-5.02-.419-1.042-.572-1.854-.504-2.62.045-.49.247-.896.62-1.243L4.39 3.74c.22-.192.455-.297.684-.297.284 0 .513.16.657.293l.014.013c.274.238.535.485.81.75.14.133.283.267.427.405l1.23 1.143c.476.444.476.854 0 1.298-.131.121-.257.243-.388.36-.378.36-.738.695-1.13 1.021-.009.009-.018.013-.022.021-.387.36-.315.712-.234.95l.013.038c.32.72.77 1.398 1.454 2.206l.005.004c1.242 1.424 2.551 2.533 3.996 3.383.184.109.373.197.553.28.162.076.315.147.446.222.018.008.036.021.054.03.153.07.297.104.445.104a.99.99 0 00.684-.289l1.54-1.432c.153-.142.396-.313.68-.313.278 0 .508.163.647.305l.01.008 2.479 2.307c.463.427.463.867.004 1.31z" mask="url(#ja)"/><mask id="jb" maskUnits="userSpaceOnUse" x="10.325" y="4.117" width="8" height="9" fill="#000"><path fill="#fff" d="M10.325 4.117h8v9h-8z"/><path d="M11.794 6.4c1.106.21 2.11.805 2.912 1.715.803.91 1.322 2.051 1.512 3.306.046.317.287.537.561.537.034 0 .063-.005.097-.01.313-.057.52-.392.469-.747-.228-1.519-.861-2.903-1.828-4-.967-1.098-2.187-1.817-3.525-2.075-.312-.058-.603.177-.658.527-.055.35.148.69.46.747z"/></mask><path d="M11.794 6.4c1.106.21 2.11.805 2.912 1.715.803.91 1.322 2.051 1.512 3.306.046.317.287.537.561.537.034 0 .063-.005.097-.01.313-.057.52-.392.469-.747-.228-1.519-.861-2.903-1.828-4-.967-1.098-2.187-1.817-3.525-2.075-.312-.058-.603.177-.658.527-.055.35.148.69.46.747z"/><path d="M11.794 6.4c1.106.21 2.11.805 2.912 1.715.803.91 1.322 2.051 1.512 3.306.046.317.287.537.561.537.034 0 .063-.005.097-.01.313-.057.52-.392.469-.747-.228-1.519-.861-2.903-1.828-4-.967-1.098-2.187-1.817-3.525-2.075-.312-.058-.603.177-.658.527-.055.35.148.69.46.747z" mask="url(#jb)"/><mask id="jc" maskUnits="userSpaceOnUse" x="10.487" y="0" width="11" height="12" fill="#000"><path fill="#fff" d="M10.487 0h11v12h-11z"/><path d="M20.962 11.014c-.375-2.5-1.414-4.777-3.01-6.588-1.595-1.811-3.6-2.99-5.804-3.416-.308-.062-.599.177-.654.527-.05.354.156.685.469.747 1.967.379 3.76 1.438 5.188 3.053 1.426 1.62 2.355 3.655 2.688 5.888.047.316.288.537.562.537.034 0 .063-.005.097-.01.308-.052.52-.388.464-.738z"/></mask><path d="M20.962 11.014c-.375-2.5-1.414-4.777-3.01-6.588-1.595-1.811-3.6-2.99-5.804-3.416-.308-.062-.599.177-.654.527-.05.354.156.685.469.747 1.967.379 3.76 1.438 5.188 3.053 1.426 1.62 2.355 3.655 2.688 5.888.047.316.288.537.562.537.034 0 .063-.005.097-.01.308-.052.52-.388.464-.738z"/><path d="M20.962 11.014c-.375-2.5-1.414-4.777-3.01-6.588-1.595-1.811-3.6-2.99-5.804-3.416-.308-.062-.599.177-.654.527-.05.354.156.685.469.747 1.967.379 3.76 1.438 5.188 3.053 1.426 1.62 2.355 3.655 2.688 5.888.047.316.288.537.562.537.034 0 .063-.005.097-.01.308-.052.52-.388.464-.738z" mask="url(#jc)"/></svg><svg fill="none" viewBox="0 0 30 48" id="prev" xmlns="http://www.w3.org/2000/svg"><path d="M26 4L6 24l20 20" stroke="#fff" stroke-width="8" stroke-linecap="round"/></svg><svg fill="none" viewBox="0 0 12 18" id="prev-2" xmlns="http://www.w3.org/2000/svg"><path d="M10 2L3 9l7 7" stroke="#E5E5E5" stroke-width="4" stroke-linecap="round"/></svg><svg viewBox="0 0 19 19" id="search" xmlns="http://www.w3.org/2000/svg"><path d="M18.794 17.802l-5.1-5.101a.702.702 0 10-.993.992l5.1 5.101a.7.7 0 00.993 0 .702.702 0 000-.992z" fill="#004686"/><path d="M8.026 0C3.6 0 0 3.6 0 8.026c0 4.425 3.6 8.026 8.026 8.026 4.425 0 8.026-3.6 8.026-8.026S12.452 0 8.026 0zm0 14.648a6.63 6.63 0 01-6.622-6.622 6.63 6.63 0 016.622-6.622 6.63 6.63 0 016.622 6.622 6.63 6.63 0 01-6.622 6.622z" fill="#004686"/></svg><svg viewBox="0 0 30 30" id="vk" xmlns="http://www.w3.org/2000/svg"><path d="M15 0C6.716 0 0 6.716 0 15c0 8.284 6.716 15 15 15 8.284 0 15-6.716 15-15 0-8.284-6.716-15-15-15zm7.609 16.622c.699.683 1.439 1.326 2.066 2.08.278.333.54.677.74 1.065.285.553.027 1.159-.467 1.192l-3.073-.001c-.794.066-1.426-.255-1.958-.797-.425-.433-.82-.894-1.229-1.342a2.871 2.871 0 00-.553-.492c-.42-.272-.783-.189-1.023.249-.245.445-.3.939-.324 1.434-.033.725-.252.914-.979.948-1.554.073-3.028-.163-4.398-.946-1.208-.69-2.144-1.666-2.959-2.77-1.587-2.152-2.803-4.514-3.895-6.944-.246-.547-.066-.84.538-.85a85.522 85.522 0 013.009-.002c.408.007.678.24.835.625.542 1.334 1.206 2.603 2.039 3.78.222.313.448.625.77.846.357.245.628.164.796-.233.107-.253.154-.523.177-.794.08-.927.09-1.854-.049-2.777-.086-.578-.41-.951-.987-1.06-.293-.056-.25-.165-.108-.332.248-.29.48-.47.944-.47h3.472c.547.107.67.353.744.904l.003 3.859c-.006.213.107.845.49.985.307.101.51-.145.693-.34.833-.883 1.426-1.926 1.957-3.005.235-.476.437-.969.634-1.462.146-.365.373-.545.785-.539l3.343.004c.099 0 .199.001.296.018.564.097.718.339.544.889-.275.863-.808 1.583-1.329 2.304-.558.772-1.154 1.517-1.707 2.293-.508.709-.468 1.066.163 1.681z"/></svg></svg>